<svg xmlns="http://www.w3.org/2000/svg" viewBox="0 0 522.43 45.98"><defs><style>.cls-1{fill:#a32035;}.cls-2{fill:#244b5a;}.cls-3,.cls-4,.cls-5,.cls-6,.cls-7,.cls-8{fill:none;stroke-miterlimit:10;}.cls-3,.cls-4{stroke:#fff;}.cls-4{stroke-width:0.25px;}.cls-5,.cls-6,.cls-7,.cls-8{stroke:#eba900;}.cls-5{stroke-width:0.5px;}.cls-6{stroke-width:0.17px;}.cls-7{stroke-width:0.13px;}.cls-8{stroke-width:0.04px;}.cls-9{font-size:11px;font-family:Gotham-Black, Gotham;font-weight:800;}.cls-10,.cls-11,.cls-9{fill:#fff;}.cls-10{font-size:9px;}.cls-10,.cls-11{font-family:Gotham-Bold, Gotham;font-weight:700;}.cls-11{font-size:8px;}</style></defs><g id="Layer_2" data-name="Layer 2"><g id="Layer_1-2" data-name="Layer 1"><rect class="cls-1" y="0.5" width="522.42" height="22.68"/><path class="cls-2" d="M410.81,23.18H522.42V45.85H410.81ZM0,23.18H410.81V45.85H0Z"/><line class="cls-3" y1="0.5" x2="410.81" y2="0.5"/><line class="cls-3" x1="410.81" y1="0.5" x2="522.43" y2="0.5"/><line class="cls-3" y1="23.18" x2="410.81" y2="23.18"/><line class="cls-3" x1="410.81" y1="23.18" x2="522.43" y2="23.18"/><line class="cls-3" x1="410.81" y1="45.73" x2="410.81" y2="23.68"/><line class="cls-4" y1="45.85" x2="410.81" y2="45.85"/><line class="cls-4" x1="410.81" y1="45.85" x2="522.43" y2="45.85"/><line class="cls-5" y1="0.25" x2="410.81" y2="0.25"/><line class="cls-6" y1="0.92" x2="410.81" y2="0.92"/><line class="cls-5" x1="410.81" y1="0.25" x2="522.43" y2="0.25"/><line class="cls-6" x1="410.81" y1="0.92" x2="522.43" y2="0.92"/><line class="cls-5" y1="22.93" x2="410.81" y2="22.93"/><line class="cls-6" y1="23.59" x2="410.81" y2="23.59"/><line class="cls-5" x1="410.81" y1="22.93" x2="522.43" y2="22.93"/><line class="cls-6" x1="411.14" y1="23.59" x2="522.43" y2="23.59"/><line class="cls-5" x1="410.56" y1="45.73" x2="410.56" y2="23.68"/><line class="cls-6" x1="411.22" y1="45.73" x2="411.22" y2="23.68"/><line class="cls-7" y1="45.79" x2="410.81" y2="45.79"/><line class="cls-8" y1="45.96" x2="410.81" y2="45.96"/><line class="cls-7" x1="410.81" y1="45.79" x2="522.43" y2="45.79"/><line class="cls-8" x1="410.81" y1="45.96" x2="522.43" y2="45.96"/><text class="cls-9" transform="translate(205.32 16.24)">COMMON COURSES</text><text class="cls-10" transform="translate(4 38.12)">COURSE NAME</text><text class="cls-11" transform="translate(431.67 37.72)">TOTAL AVERAGE</text></g></g></svg>